<svg width="415" height="564" viewBox="0 0 415 564" fill="none" xmlns="http://www.w3.org/2000/svg">
<path fill-rule="evenodd" clip-rule="evenodd" d="M3.00024 132V354L94.0002 140L3.00024 132Z" fill="#FED6FF"/>
<path d="M3.00024 132L94.0002 140L202 3L3.00024 132Z" fill="#FDE2FF"/>
<path d="M94.0002 140L214 390L321 148L94.0002 140Z" fill="#FED6FF"/>
<path d="M321 148L214 390L412 362L321 148Z" fill="#F0A2EF"/>
<path d="M321 148L412 362V140L321 148Z" fill="#9778C6"/>
<path d="M94.0002 140L3.00024 354L214 390L94.0002 140Z" fill="#ECE4FF"/>
<path d="M202 3L94.0002 140L321 148L202 3Z" fill="#ECE4FF"/>
<path d="M321 148L412 140L202 3L321 148Z" fill="#F0A2EF"/>
<path d="M412 362L214 390V510L412 362Z" fill="#9778C6"/>
<path d="M214 390L3.00024 354L214 510V390Z" fill="#F0A2EF"/>
<path d="M3.00024 132L94.0002 140M412 140L202 3L3.00024 132V354L214 510L412 362V140ZM94.0002 140L202 3M94.0002 140L3.00024 354M94.0002 140L214 390M94.0002 140L321 148M202 3L321 148M3.00024 354L214 390M214 390L321 148M214 390L412 362M214 390V510M321 148L412 362M321 148L412 140" stroke="#F0A2EF" stroke-width="3" stroke-linejoin="round"/>
<path d="M313 554V436L297 447.96V546L273 551V561L313 554Z" fill="#9778C6"/>
<path d="M156 525V467.118L145 458.986V518H127V525H156Z" fill="#9778C6"/>
<path d="M145 458.986L59.0002 395.403L3.00024 354V132L202 3L412 140V362L337.75 417.5M59.0002 395.403L41.0002 424L23.0002 411M23.0002 411V390M23.0002 411L3.00024 395.403M23.0002 411H3.00024M145 458.986L156 467.118L214 510L297 447.96L313 436M156 467.118V525H127V518H145V458.986M313 436V554L273 561V551L297 546V447.96M313 436L337.75 417.5M337.75 417.5L349.5 455L380.5 436M380.5 436V419M380.5 436L402.5 422.5M380.5 436H401" stroke="#9778C6" stroke-width="6" stroke-linecap="round" stroke-linejoin="round"/>
<circle cx="55.0002" cy="335" r="16" fill="#9778C6"/>
<circle cx="154" cy="346" r="16" fill="#9778C6"/>
<path d="M74.2832 328.806L143.54 306.607L146.228 314.993L85.7637 334.374L85.8938 334.78L102.541 348.09L94.0189 350.821L76.9714 337.193L74.2832 328.806Z" fill="#FED6FF"/>
<path d="M130.861 263.796C132.494 268.891 132.499 273.675 130.875 278.148C129.228 282.629 126.06 286.665 121.369 290.257C116.655 293.856 110.534 296.863 103.004 299.276C95.5191 301.676 88.8243 302.777 82.9193 302.582C76.9846 302.371 72.045 300.921 68.1005 298.233C64.1262 295.529 61.3298 291.652 59.7111 286.602C58.0924 281.552 58.1175 276.783 59.7866 272.295C61.4259 267.792 64.6023 263.741 69.3157 260.142C73.9994 256.528 80.0836 253.521 87.5684 251.122C95.0982 248.708 101.827 247.595 107.754 247.784C113.659 247.979 118.584 249.421 122.528 252.11C126.45 254.805 129.228 258.701 130.861 263.796ZM123.422 266.18C121.803 261.131 118.111 257.988 112.345 256.754C106.579 255.519 99.1876 256.347 90.1698 259.238C84.173 261.16 79.2727 263.439 75.4688 266.075C71.6577 268.689 69.0304 271.545 67.5871 274.643C66.1365 277.718 65.9459 280.924 67.0154 284.261C68.6197 289.266 72.3421 292.386 78.1826 293.621C84.0006 294.864 91.4072 294.044 100.402 291.16C106.399 289.238 111.292 286.974 115.08 284.367C118.869 281.761 121.477 278.923 122.905 275.855C124.326 272.764 124.498 269.54 123.422 266.18Z" fill="#FED6FF"/>
<path d="M207.373 178.068C212.25 178.078 216.557 178.951 220.294 180.687C224.008 182.446 226.903 184.855 228.98 187.913C231.057 190.995 232.08 194.5 232.048 198.43C232.066 201.508 231.457 204.348 230.22 206.949C228.984 209.575 227.299 211.761 225.164 213.509C223.007 215.28 220.601 216.4 217.949 216.868L217.948 217.294C221.426 218.201 224.192 220.159 226.246 223.17C228.299 226.205 229.311 229.651 229.279 233.51C229.295 237.203 228.354 240.504 226.454 243.412C224.554 246.32 221.945 248.611 218.627 250.286C215.286 251.96 211.485 252.793 207.223 252.784C203.009 252.776 199.247 251.928 195.936 250.24C192.625 248.553 190.025 246.251 188.137 243.335C186.225 240.419 185.261 237.115 185.245 233.422C185.277 229.563 186.337 226.12 188.426 223.094C190.492 220.092 193.23 218.144 196.641 217.251L196.642 216.825C194.015 216.346 191.65 215.217 189.547 213.437C187.443 211.681 185.767 209.488 184.517 206.858C183.268 204.251 182.634 201.409 182.617 198.331C182.648 194.401 183.721 190.9 185.834 187.826C187.923 184.776 190.828 182.379 194.549 180.635C198.245 178.914 202.52 178.059 207.373 178.068ZM207.358 185.881C204.067 185.874 201.225 186.401 198.832 187.462C196.439 188.522 194.589 190.022 193.283 191.96C191.977 193.899 191.31 196.171 191.281 198.775C191.299 201.521 192.004 203.949 193.397 206.059C194.789 208.169 196.692 209.83 199.104 211.042C201.493 212.254 204.226 212.863 207.303 212.869C210.405 212.876 213.176 212.277 215.617 211.075C218.034 209.872 219.943 208.219 221.344 206.115C222.721 204.011 223.401 201.585 223.383 198.839C223.412 196.235 222.789 193.961 221.514 192.017C220.216 190.073 218.361 188.566 215.948 187.496C213.536 186.426 210.672 185.887 207.358 185.881ZM207.288 220.398C204.684 220.392 202.375 220.909 200.36 221.946C198.322 222.984 196.721 224.437 195.558 226.305C194.394 228.173 193.798 230.361 193.769 232.871C193.788 235.333 194.363 237.476 195.496 239.302C196.629 241.151 198.2 242.574 200.211 243.572C202.221 244.595 204.564 245.108 207.239 245.114C209.961 245.119 212.342 244.615 214.38 243.601C216.418 242.611 217.995 241.193 219.111 239.349C220.227 237.528 220.776 235.387 220.758 232.925C220.786 230.415 220.234 228.224 219.102 226.352C217.945 224.479 216.35 223.02 214.316 221.974C212.283 220.929 209.94 220.403 207.288 220.398Z" fill="#FDE2FF"/>
<path d="M382.836 186.157C384.621 185.812 386.458 185.874 388.345 186.343C390.233 186.811 392.038 187.897 393.761 189.598C395.486 191.318 397.01 193.813 398.334 197.082C399.66 200.37 400.652 204.642 401.311 209.898C401.941 214.931 402.139 219.468 401.905 223.509C401.673 227.569 401.039 231.078 400.001 234.037C398.966 237.015 397.568 239.405 395.805 241.209C394.028 243.016 391.917 244.182 389.472 244.706C387.041 245.228 384.798 245.054 382.744 244.184C380.679 243.335 378.904 241.911 377.419 239.911C375.935 237.912 374.832 235.478 374.11 232.612L379.283 231.501C380.084 233.952 381.282 235.87 382.878 237.257C384.474 238.644 386.417 239.091 388.707 238.6C392.071 237.877 394.482 235.393 395.938 231.147C397.381 226.903 397.676 221.32 396.823 214.396L396.484 214.468C395.889 216.211 395.117 217.755 394.168 219.099C393.207 220.464 392.1 221.595 390.848 222.491C389.596 223.387 388.228 223.994 386.744 224.313C384.256 224.847 381.878 224.521 379.611 223.336C377.345 222.169 375.412 220.294 373.812 217.711C372.213 215.147 371.184 212.032 370.726 208.368C370.285 204.852 370.483 201.503 371.318 198.322C372.155 195.158 373.555 192.482 375.516 190.294C377.465 188.127 379.905 186.748 382.836 186.157ZM383.601 192.264C381.82 192.646 380.295 193.572 379.028 195.041C377.746 196.514 376.819 198.319 376.244 200.456C375.656 202.597 375.513 204.87 375.814 207.276C376.108 209.626 376.779 211.677 377.826 213.429C378.86 215.202 380.149 216.512 381.692 217.359C383.221 218.209 384.876 218.443 386.657 218.06C388 217.772 389.207 217.152 390.278 216.2C391.351 215.266 392.251 214.104 392.976 212.713C393.688 211.325 394.194 209.801 394.494 208.14C394.796 206.498 394.841 204.825 394.627 203.123C394.345 200.865 393.678 198.842 392.626 197.054C391.561 195.268 390.246 193.925 388.682 193.026C387.104 192.13 385.41 191.876 383.601 192.264Z" fill="#F0A2EF"/>
<path d="M399.898 167.33L362.668 175.322L362 169.993L399.231 162L399.898 167.33Z" fill="#F0A2EF"/>
<path d="M157.776 123V117.247L180.381 93.5966C182.917 90.8267 186.005 88.419 187.645 86.3736C189.286 84.3068 190.5 82.3679 191.289 80.5568C192.098 78.7244 192.503 76.8068 192.503 74.804C192.503 72.5028 191.949 70.5107 190.841 68.8274C189.755 67.1442 188.263 65.8445 186.367 64.9283C184.47 64.0121 182.34 63.554 179.975 63.554C177.461 63.554 175.266 64.076 173.391 65.12C171.537 66.1428 170.099 67.581 169.076 69.4347C168.075 71.2884 167.574 73.4617 167.574 75.9545H160.032C160.032 72.1193 160.916 68.7528 162.684 65.8551C164.453 62.9574 166.86 60.6989 169.907 59.0796C172.975 57.4602 176.417 56.6506 180.23 56.6506C184.066 56.6506 187.464 57.4602 190.426 59.0796C193.387 60.6989 195.71 62.8828 197.393 65.6314C199.076 68.38 199.918 71.4375 199.918 74.804C199.918 77.2117 199.481 79.5661 198.608 81.8672C197.755 84.147 196.264 86.6932 194.133 89.5057C192.024 92.2969 188.094 95.706 184.344 99.733L168.642 115.457V115.969H199.068V123H157.776Z" fill="#FED6FF"/>
<path d="M233.618 123.895C228.802 123.895 224.701 122.585 221.313 119.964C217.925 117.322 215.336 113.497 213.546 108.49C211.757 103.462 209.862 97.3892 209.862 90.2727C209.862 83.1989 209.757 77.1584 211.546 72.1513C213.358 67.1229 215.957 63.2876 219.345 60.6456C222.754 57.9822 226.845 56.6506 231.618 56.6506C236.39 56.6506 240.47 57.9822 243.858 60.6456C247.267 63.2876 249.867 67.1229 251.657 72.1513C253.468 77.1584 255.373 83.1989 255.373 90.2727C255.373 97.3892 255.478 103.462 253.689 108.49C251.899 113.497 249.31 117.322 245.922 119.964C242.534 122.585 238.433 123.895 233.618 123.895ZM233.618 116.864C238.39 116.864 242.098 114.563 244.74 109.96C247.382 105.358 247.703 98.7955 247.703 90.2727C247.703 84.6051 246.095 79.7791 244.881 75.7948C243.688 71.8104 241.962 68.7742 239.703 66.6861C237.466 64.598 234.771 63.554 231.618 63.554C226.887 63.554 223.191 65.8871 220.527 70.5533C217.864 75.1982 217.532 81.7713 217.532 90.2727C217.532 95.9403 219.129 100.756 220.322 104.719C221.515 108.682 223.23 111.697 225.468 113.764C227.726 115.83 230.443 116.864 233.618 116.864Z" fill="#FED6FF"/>
<ellipse cx="103.5" cy="386.5" rx="10.5" ry="13.5" fill="#9778C6"/>
</svg>
