<svg width="88" height="88" viewBox="0 0 88 88" fill="none" xmlns="http://www.w3.org/2000/svg">
<path fill-rule="evenodd" clip-rule="evenodd" d="M43.7325 0C67.8853 0 87.465 19.5797 87.465 43.7325C87.465 67.8853 67.8853 87.465 43.7325 87.465C19.5797 87.465 0 67.8853 0 43.7325C0 19.5797 19.5797 0 43.7325 0ZM43.7325 11.5763C25.9731 11.5763 11.5763 25.9731 11.5763 43.7325C11.5763 61.4919 25.9731 75.8888 43.7325 75.8888C61.4919 75.8888 75.8888 61.4919 75.8888 43.7325C75.8888 25.9731 61.4919 11.5763 43.7325 11.5763Z" fill="#ED7886"/>
<path d="M43.7332 9.96826C59.6971 9.96826 73.0706 21.0478 76.5899 35.9363C70.0724 41.1554 59.1584 40.4713 50.5573 33.8207C46.7965 30.9127 44.0287 27.289 42.3892 23.495C40.7497 27.2892 37.9822 30.9126 34.2212 33.8207C26.5897 39.7215 17.1375 40.9257 10.5508 37.4768C13.4844 21.8184 27.2234 9.96826 43.7332 9.96826Z" fill="#E74B5D"/>
<circle cx="23.4754" cy="51.8363" r="9.45394" fill="#E74B5D"/>
<circle cx="63.992" cy="51.8363" r="9.45394" fill="#E74B5D"/>
<circle cx="36.3041" cy="41.7065" r="3.37641" fill="#E11E35"/>
<path d="M49.1355 47.7847C49.1355 50.0224 46.4145 51.8364 43.058 51.8364C39.7015 51.8364 36.9805 50.0224 36.9805 47.7847" stroke="#E11E35" stroke-linecap="round"/>
<circle cx="51.1596" cy="41.7065" r="3.37641" fill="#E11E35"/>
</svg>
